<?xml version="1.0" standalone="yes"?>

<svg version="1.1" viewBox="0.0 0.0 567.8635170603675 245.89763779527559" fill="none" stroke="none" stroke-linecap="square" stroke-miterlimit="10" xmlns="http://www.w3.org/2000/svg" xmlns:xlink="http://www.w3.org/1999/xlink"><clipPath id="p.0"><path d="m0 0l567.8635 0l0 245.89764l-567.8635 0l0 -245.89764z" clip-rule="nonzero"></path></clipPath><g clip-path="url(#p.0)"><path fill="#000000" fill-opacity="0.0" d="m0 0l567.8635 0l0 245.89764l-567.8635 0z" fill-rule="nonzero"></path><path fill="#434343" d="m0 20.716536l373.85828 0l0 19.464567l-373.85828 0z" fill-rule="nonzero"></path><path fill="#434343" d="m0 181.83464l373.85828 0l0 19.46457l-373.85828 0z" fill-rule="nonzero"></path><path fill="#666666" d="m0 208.68767l300.7244 0l0 19.46457l-300.7244 0z" fill-rule="nonzero"></path><path fill="#666666" d="m115.026245 154.98163l185.7008 0l0 19.46457l-185.7008 0z" fill-rule="nonzero"></path><path fill="#666666" d="m118.09449 47.569553l373.85828 0l0 19.464565l-373.85828 0z" fill-rule="nonzero"></path><path fill="#666666" d="m184.45145 101.27559l373.85825 0l0 19.46457l-373.85825 0z" fill-rule="nonzero"></path><path fill="#666666" d="m115.026245 128.12862l373.85828 0l0 19.464554l-373.85828 0z" fill-rule="nonzero"></path><path fill="#999999" d="m306.70078 154.98163l182.17325 0l0 19.46457l-182.17325 0z" fill-rule="nonzero"></path><path fill="#666666" d="m184.45145 74.42257l185.7008 0l0 19.46457l-185.7008 0z" fill-rule="nonzero"></path><path fill="#999999" d="m376.13647 74.42257l182.17322 0l0 19.46457l-182.17322 0z" fill-rule="nonzero"></path></g></svg>

